<mxfile host="app.diagrams.net" modified="2024-06-12T13:56:58.556Z" agent="Mozilla/5.0 (Windows NT 10.0; Win64; x64) AppleWebKit/537.36 (KHTML, like Gecko) Chrome/127.0.0.0 Safari/537.36 Edg/127.0.0.0" version="24.5.3" etag="V1W5CccxRtpZeDc2XU7P" type="github">
  <diagram name="第 1 页" id="mT9Ck1lixebSYHin6tER">
    <mxGraphModel>
      <root>
        <mxCell id="0" />
        <mxCell id="1" parent="0" />
      </root>
    </mxGraphModel>
  </diagram>
</mxfile>
